[img]http://img692.imageshack.us/img692/9237/playbackofficialmoviepo.jpg[/img]


IMDB Link: 
http://www.imdb.com/title/tt1682940/

Description:
A cop investigates the case of a missing local teen, though he discovers a dark secret that has been unleashed in his town, and an evil spirit that will stop at nothing to find its heir.

MediaInfo:
General
Complete name                            : Playback.2012.HDRiP.AC3-2.0.XviD-SiC.avi
Format                                   : AVI
Format/Info                              : Audio Video Interleave
File size                                : 1.36 GiB
Duration                                 : 1h 38mn
Overall bit rate                         : 1 977 Kbps

Video
ID                                       : 0
Format                                   : MPEG-4 Visual
Format profile                           : Advanced Simple@L5
Format settings, BVOP                    : 2
Format settings, QPel                    : No
Format settings, GMC                     : No warppoints
Format settings, Matrix                  : Default (H.263)
Muxing mode                              : Packed bitstream
Codec ID                                 : XVID
Codec ID/Hint                            : XviD
Duration                                 : 1h 38mn
Bit rate                                 : 1 714 Kbps
Width                                    : 720 pixels
Height                                   : 400 pixels
Display aspect ratio                     : 16:9
Frame rate                               : 23.976 fps
Color space                              : YUV
Chroma subsampling                       : 4:2:0
Bit depth                                : 8 bits
Scan type                                : Progressive
Compression mode                         : Lossy
Bits/(Pixel*Frame)                       : 0.248
Stream size                              : 1.18 GiB (87%)
Writing library                          : XviD 1.1.2 (UTC 2006-11-01)

Audio
ID                                       : 1
Format                                   : AC-3
Format/Info                              : Audio Coding 3
Mode extension                           : CM (complete main)
Codec ID                                 : 2000
Duration                                 : 1h 38mn
Bit rate mode                            : Constant
Bit rate                                 : 256 Kbps
Channel(s)                               : 2 channels
Channel positions                        : Front: L R
Sampling rate                            : 48.0 KHz
Bit depth                                : 16 bits
Compression mode                         : Lossy
Stream size                              : 180 MiB (13%)
Alignment                                : Aligned on interleaves
Interleave, duration                     : 64 ms (1.53 video frames)
Interleave, preload duration             : 192 ms
Title                                    : playback

[img]http://img828.imageshack.us/img828
/7518/screencap00002.png[/img]
[img]http://img84.imageshack.us/img84/1460/screencap00006.png[/img]
[img]http://img191.imageshack.us/img191/8159/screencap00007.png[/img]
[img]http://img819.imageshack.us/img819/8877/screencap00010.png[/img]
[img]http://img546.imageshack.us/img546/6097/screencap00011.png[/img]